# xmcd
#
# Track frame offsets: 
#        150
#        19123
#        32419
#        45665
#        61083
#        71501
#        83360
#        98741
#        108370
#        122887
#        135665
#        149066
#        166791
#        185382
#        197182
#        209936
#
# Disc length: 2987 seconds
#
# Revision: 0
# Processed by: cddbd v1.5.2PL0 Copyright (c) Steve Scherf et al.
# Submitted via: ExactAudioCopy v0.99pb4
#
DISCID=df0ba910
DTITLE=Whiskeytown - Fucker (a.k.a. Heartbreaker Demos)
DYEAR=1998
DGENRE=Country
TTITLE0=In My Time Of Need  (alt. demo version)
TTITLE1=Bar Lights
TTITLE2=Win
TTITLE3=Comfortable Only At Night (a.k.a. All I Wanted)
TTITLE4=Out Of Time
TTITLE5=Sit And Listen To The Rain
TTITLE6=Leave The Lights Off (a.k.a. Night Lights)
TTITLE7=Bound To Happen (a.k.a.Probably Gonna Happen)
TTITLE8=What Makes The World Like This (a.k.a. West NY Serenade)
TTITLE9=Hurts Sometimes (a.k.a. Lil' Girls)
TTITLE10=Tearing Me Up Inside (a.k.a. In The World)
TTITLE11=Medicine
TTITLE12=Today
TTITLE13=Clearly Destroyed
TTITLE14=Breathe (a.k.a. Believe)
TTITLE15=Fool
EXTD=
EXTT0=
EXTT1=
EXTT2=
EXTT3=
EXTT4=
EXTT5=
EXTT6=
EXTT7=
EXTT8=
EXTT9=
EXTT10=
EXTT11=
EXTT12=
EXTT13=
EXTT14=
EXTT15=
PLAYORDER=
